<svg width="20" height="20" viewBox="0 0 20 20" fill="none" xmlns="http://www.w3.org/2000/svg">
<path d="M16.4033 0.5L16.7021 0.522461C17.3935 0.607388 18.0417 0.916615 18.5439 1.40723C19.1152 1.96537 19.456 2.71749 19.5 3.51465V16.5C19.4911 17.2902 19.1737 18.0461 18.6162 18.6064C18.0576 19.1677 17.3016 19.4884 16.5098 19.5H13.9336V13.5H16.4199V9.5H13.833V8.12695C13.8401 8.04254 13.8766 7.96332 13.9365 7.90332C13.9963 7.84357 14.0751 7.80709 14.1592 7.7998H17.0215V3.7998H14.1338C13.5826 3.7994 13.0364 3.90789 12.5273 4.11914C12.0183 4.33039 11.5559 4.64075 11.167 5.03125C10.7782 5.42165 10.4699 5.88481 10.2607 6.39453C10.0777 6.84071 9.97364 7.31514 9.95215 7.7959L9.94824 8V9.40039H7.95703V13.4004H9.94824V19.5H3.4873C2.70939 19.493 1.96392 19.186 1.40723 18.6426C0.920132 18.167 0.61048 17.5425 0.523438 16.873L0.5 16.584V3.50488C0.507689 2.71271 0.824918 1.95503 1.38379 1.39355C1.87288 0.902213 2.51312 0.595149 3.19629 0.518555L3.49121 0.5H16.4033Z" fill="black" stroke="black"/>
</svg>
